<svg xmlns="http://www.w3.org/2000/svg" viewBox="0 0 200 200" fill="none">
  <rect width="200" height="200" rx="44" fill="#081c3c"/>
  <path d="M 22 140 L 85 140 C 60 115 50 75 75 50 C 100 25 140 30 160 60 C 170 75 172 90 168 105 C 160 128 135 142 110 140" stroke="#3b82f6" stroke-width="16" stroke-linecap="round" stroke-linejoin="round"/>
  <path d="M 105 62 L 126 118" stroke="#ffffff" stroke-width="15" stroke-linecap="round"/>
  <path d="M 72 120 L 148 54" stroke="#3b82f6" stroke-width="16" stroke-linecap="round"/>
  <polygon points="170,35 125,41 161,77" fill="#3b82f6" />
  <path d="M 84 118 L 105 62" stroke="#ffffff" stroke-width="15" stroke-linecap="round"/>
  <path d="M 94 92 L 103 92" stroke="#ffffff" stroke-width="12" stroke-linecap="round"/>
  <path d="M 124 144 L 152 144" stroke="#ffffff" stroke-width="12" stroke-linecap="round"/>
  <polygon points="170,144 148,131 148,157" fill="#ffffff" />
</svg>